<svg id="Capa_1" data-name="Capa 1" xmlns="http://www.w3.org/2000/svg" width="11.49111" height="11.78976" viewBox="0 0 11.49111 11.78976">
  <defs>
    <style>
      .cls-1 {
        fill: #fff;
      }
    </style>
  </defs>
  <path class="cls-1" d="M11.32076,5.46272l.58416.58416a.62892.62892,0,0,1,0,.892L6.79221,12.05425a.62892.62892,0,0,1-.892,0L.78484,6.93891a.62892.62892,0,0,1,0-.892L1.369,5.46272a.63223.63223,0,0,1,.90255.01053L5.29234,8.644V1.08152A.63.63,0,0,1,5.92387.45h.842a.63.63,0,0,1,.63152.63152V8.644l3.02079-3.17077a.62767.62767,0,0,1,.90255-.01053Z" transform="translate(-0.59933 -0.45)"/>
</svg>
