<svg id="Capa_1" data-name="Capa 1" xmlns="http://www.w3.org/2000/svg" width="11.49111" height="11.79246" viewBox="0 0 11.49111 11.79246">
  <defs>
    <style>
      .cls-1 {
        fill: #fff;
      }
    </style>
  </defs>
  <path class="cls-1" d="M1.36929,7.22736.785,6.64307a.62907.62907,0,0,1,0-.89223L5.89888.63432a.62908.62908,0,0,1,.89224,0L11.905,5.7482a.62908.62908,0,0,1,0,.89224l-.58429.58429A.63238.63238,0,0,1,10.418,7.2142L7.3991,4.04533v7.56423a.63015.63015,0,0,1-.63167.63167H5.9252a.63015.63015,0,0,1-.63167-.63167V4.04533L2.27205,7.21683A.62782.62782,0,0,1,1.36929,7.22736Z" transform="translate(-0.59945 -0.44877)"/>
</svg>
