<svg xmlns="http://www.w3.org/2000/svg" width="32" height="32" viewBox="0 0 32 32">
    <g fill="none" fill-rule="evenodd">
        <g fill="#63666A">
            <g>
                <g>
                    <g>
                        <path d="M30 24c0 .203-.039.395-.095.578L21 15l9-7v16zM3.556 25.946l9.024-9.616L16 18.915l3.272-2.601 9.172 9.632c-.143.033-24.745.033-24.888 0zM2 24V8l9 7-8.905 9.578C2.039 24.395 2 24.203 2 24zM29 6L16 16 3 6h26zm-1-2H4C1.791 4 0 5.791 0 8v16c0 2.209 1.791 4 4 4h24c2.209 0 4-1.791 4-4V8c0-2.209-1.791-4-4-4z" transform="translate(-828 -12947) translate(0 12603) translate(67 341) translate(761 3)"/>
                    </g>
                </g>
            </g>
        </g>
    </g>
</svg>
