<svg xmlns="http://www.w3.org/2000/svg" width="32" height="32" viewBox="0 0 32 32">
    <g fill="none" fill-rule="evenodd">
        <g fill="#63666A">
            <g>
                <g>
                    <g>
                        <path d="M29.565 7.997c-1.75 3.324-5.635 8.442-8.888 11.818-3.75 4.055-12.59 9.601-12.59 9.601-.682.358-2.576.385-3.097-.135l-1.885-1.88c-.39-.65-.564-1.403 0-1.879l3.77-2.82c.639-.431 1.364-.519 1.885 0l2.323 2.316c.547-.384 9.274-6.103 14.128-13.977L22.832 8.67c-.52-.519-.432-1.244 0-1.88l2.828-3.76c.52-.695 1.365-.52 1.885 0l1.885 1.88c.74.693.525 2.31.135 3.088zm1.48-4.43L28.083.611c-.817-.816-2.144-.816-2.962 0l-4.444 5.909c-.678 1-.817 2.138 0 2.954l1.814 1.808c-1.345 1.802-2.959 3.766-4.775 5.577-2.055 2.049-4.34 3.91-6.395 5.44l-1.753-1.746c-.817-.817-1.959-.679-2.962 0L.68 24.984c-.993.685-.818 2.139 0 2.955l2.962 2.953c1.637 1.633 3.765 1.11 5.925 0 0 0 6.54-3.66 12.138-9.243 5.266-5.252 9.34-12.174 9.34-12.174.849-2.33 1.636-4.277 0-5.909z" transform="translate(-458 -12947) translate(0 12603) translate(67 341) translate(391 3) matrix(-1 0 0 1 32 0)"/>
                    </g>
                </g>
            </g>
        </g>
    </g>
</svg>
