<svg xmlns="http://www.w3.org/2000/svg" width="38" height="38" viewBox="0 0 38 38">
    <g fill="none" fill-rule="evenodd">
        <g fill="#63666A">
            <g>
                <g>
                    <g>
                        <path d="M19 0c10.493 0 19 8.507 19 19s-8.507 19-19 19S0 29.493 0 19 8.507 0 19 0zm0 1.727C9.46 1.727 1.727 9.461 1.727 19c0 9.54 7.734 17.273 17.273 17.273 9.54 0 17.273-7.734 17.273-17.273 0-9.54-7.734-17.273-17.273-17.273zm4.364 14.062c2.393 0 4.272 1.69 4.272 5.322v6.525H23.82v-6.072c0-1.59-.597-2.673-1.91-2.673-1.005 0-1.563.73-1.823 1.437-.098.252-.083.605-.083.96v6.348h-3.782v-.096c.003-.482.012-2.708.018-5.092l.001-.625.002-1.245v-.609l.001-.297v-.58V18.277c-.003-1.21-.009-2.121-.022-2.375h3.782v1.842c.224-.805 1.432-1.955 3.36-1.955zm-9.198.113v11.733h-3.367V15.902h3.367zm-1.746-5.538c1.242 0 2.006.877 2.03 2.035 0 1.135-.788 2.036-2.053 2.036h-.025c-1.218 0-2.008-.897-2.008-2.033 0-1.16.813-2.038 2.056-2.038z" transform="translate(-1057 -12944) translate(0 12603) translate(67 341) translate(990)"/>
                    </g>
                </g>
            </g>
        </g>
    </g>
</svg>
